# xmcd CD database file
#
# Track frame offsets:
#	182
#	38670
#	75180
#	122932
#	171865
#	201490
#	242665
#
# Disc length: 3759 seconds
#
# Revision: 1
# Processed by: cddbd v1.4PL0 Copyright (c) Steve Scherf et al.
# Submitted via: CDex 1.50beta10
#
DISCID=540ead07
DTITLE=David Murray - Flowers around cleveland
DYEAR=1900
DGENRE=Jazz
TTITLE0=Fantasy Raibow
TTITLE1=Few's blues
TTITLE2=The desagregation of our children
TTITLE3=Sorrow song
TTITLE4=Dakar Darkness
TTITLE5=When the monarchs come to town
TTITLE6=Flowers around cleveland
EXTD=
EXTT0=
EXTT1=
EXTT2=
EXTT3=
EXTT4=
EXTT5=
EXTT6=
PLAYORDER=
